<svg xmlns="http://www.w3.org/2000/svg" xmlns:xlink="http://www.w3.org/1999/xlink" version="1.0" viewBox="0 0 750 750"><defs><path id="a" fill="#fff" d="M-75-75h900v900H-75z"/></defs><defs><clipPath id="b"><path d="M9 8h733v734H9Zm0 0"/></clipPath></defs><use xlink:href="#a"/><use xlink:href="#a"/><use xlink:href="#a"/><g clip-path="url(#b)"><path fill="#1c64f2" d="M291 463a85 85 0 1 0 94-85c-2 0-3-1-3-2v-90c0-2 1-3 2-3a29 29 0 1 0-17 0c2 0 2 1 2 3v90l-2 2c-43 5-76 41-76 85ZM82 134a20 20 0 1 0 39 5 20 20 0 0 0-39-5Zm123-78a20 20 0 1 0 5-38 20 20 0 0 0-5 38Zm337 0a20 20 0 1 0 5-38 20 20 0 0 0-5 38Zm106 100a20 20 0 1 0 5-39 20 20 0 0 0-5 39ZM93 168a33 33 0 1 1 17 0l-2 2v126l2 3 147 44 3-1c13-12 28-22 45-29 1-1 2-4 0-5l-102-83-2-5V71l-2-2a33 33 0 1 1 17 0l-2 2v144l1 2 73 60c2 2 5 0 4-2l-2-19a86 86 0 1 1 169 19c0 2 3 4 5 2l73-60 1-2V71l-2-2a33 33 0 1 1 17 0c-2 0-2 1-2 2v149l-3 5-101 83c-2 1-2 4 0 5 16 7 32 17 45 29l2 1 148-44 2-3V170l-2-2a33 33 0 1 1 17 0l-2 2v136l-2 2-162 49h-4v-1h-2v-1a1 1 0 0 1-1 0c-16-16-36-28-58-36h-1v-1h-1v-1h-1v-1l-1-1v-4a7 7 0 0 1 1-2l1-1a73 73 0 1 0-99 1h-1l1 1a7 7 0 0 1 1 2v3l-1 1-1 1v1a103 103 0 0 0-1 0l-1 1h-1c-21 8-41 20-58 36l-1 1h-1v1h-1a6 6 0 0 1-3 0L97 308l-2-2V170l-2-2Zm636 448a20 20 0 1 0-39-6 20 20 0 0 0 39 6Zm-91 78a20 20 0 1 0-5 39 20 20 0 0 0 5-39Zm104-81c0 20-18 36-38 32-13-2-25-15-27-28s5-26 15-32c1-1 2-2 1-3l-36-125-2-2-105-12c-2 0-4 2-3 3a173 173 0 0 1-10 86c-1 1 0 3 2 3l70 14c3 1 5 3 6 6l21 123c0 2 1 3 2 3a33 33 0 1 1-8 64 33 33 0 0 1-9-62c2 0 2-1 2-2l-20-118-2-2-76-15a6 6 0 0 1-2-1h-1v-1h-1v-1h-1v-6a158 158 0 0 0 11-102l1-2c2-3 5-4 7-4h3l120 14c3 0 5 2 6 4l38 131c0 2 1 2 3 2 18 0 33 15 33 33Zm-623 81a20 20 0 1 0-5 39 20 20 0 0 0 5-39Zm-57-78a20 20 0 1 0-39-6 20 20 0 0 0 39 6Zm169-73v1h-1v1h-1l-1 1h-1l-76 15-2 2-20 118 1 2a33 33 0 1 1-16-2c1 0 2-1 2-3l21-123c1-3 3-5 5-6l71-14c2 0 3-2 2-3a171 171 0 0 1-10-86c0-1-1-3-3-3L97 455l-2 2-37 125 1 3a33 33 0 1 1-17-5h1c1 0 2 0 3-2l38-131c1-2 3-4 5-4l120-14h2c3-1 6 0 9 4v2a160 160 0 0 0 11 102l1 1v4l-1 1Zm283 30a172 172 0 0 1-275 1c-3-4-1-11 7-10l2 1c30 41 77 64 128 64 50 0 96-23 126-63 4-4 11-3 13 5l-1 2"/></g></svg>